<svg xmlns="http://www.w3.org/2000/svg" xmlns:xlink="http://www.w3.org/1999/xlink" width="400.59" height="86.191" viewBox="0 0 400.59 86.191">
  <defs>
    <clipPath id="clip-path">
      <rect id="Rectangle_356" data-name="Rectangle 356" width="400.59" height="86.191" fill="none"/>
    </clipPath>
  </defs>
  <g id="Group_2" data-name="Group 2" transform="translate(0 0)">
    <g id="Group_1" data-name="Group 1" transform="translate(0 0)" clip-path="url(#clip-path)">
      <path id="Path_1" data-name="Path 1" d="M49.8,28.387c0-11.179,8.885-19.664,20.753-19.664,7.166,0,13.012,3.04,15.879,8.256L76.572,23.8c-1.949-3.21-3.9-4.757-6.937-4.757-4.243,0-6.478,2.979-6.478,9.458,0,6.65,2.351,9.229,6.937,9.229a4.577,4.577,0,0,0,2.694-.63c1.434-.918,2.294-2.637,2.294-5.045v-4.7H87V41.113c-3.783,4.127-9.86,6.593-16.4,6.593C58.8,47.706,49.8,39.68,49.8,28.387" transform="translate(41.959 7.349)" fill="#333"/>
      <path id="Path_2" data-name="Path 2" d="M78.269,28.214a19.32,19.32,0,1,1,38.638,0,19.32,19.32,0,1,1-38.638,0m25.282,0c0-5.846-1.949-9.172-5.963-9.172s-5.963,3.326-5.963,9.172,1.949,9.172,5.963,9.172,5.963-3.326,5.963-9.172" transform="translate(65.946 7.348)" fill="#333"/>
      <path id="Path_3" data-name="Path 3" d="M108.046,9.034H120.6v28.2h15.135v9.631H108.046Z" transform="translate(91.035 7.611)" fill="#333"/>
      <rect id="Rectangle_353" data-name="Rectangle 353" width="12.553" height="37.835" transform="translate(242.764 16.646)" fill="#333"/>
      <path id="Path_4" data-name="Path 4" d="M159.746,9.034h12.268L185.6,46.871H172.532l-1.664-5.848H160.435l-1.721,5.848H146.161Zm3.038,23.218h5.732l-2.865-9.745Z" transform="translate(123.149 7.611)" fill="#333"/>
      <path id="Path_5" data-name="Path 5" d="M182.515,18.665H172.482V9.034h32.563v9.631H195.013V46.871h-12.5Z" transform="translate(145.326 7.611)" fill="#333"/>
      <path id="Path_6" data-name="Path 6" d="M220.532,32.6h-9.172V46.869H198.8V9.034h12.555v13.93h9.172V9.034h12.555V46.869H220.532Z" transform="translate(167.504 7.611)" fill="#333"/>
      <path id="Path_7" data-name="Path 7" d="M54.622,44.544V50.7H52.549V34.979h5.8a5.83,5.83,0,0,1,4.044,1.316,4.47,4.47,0,0,1,1.463,3.488,4.4,4.4,0,0,1-1.432,3.525,6.082,6.082,0,0,1-4.1,1.236Zm0-1.7h3.724a3.72,3.72,0,0,0,2.548-.785A2.859,2.859,0,0,0,61.78,39.8a2.957,2.957,0,0,0-.886-2.25,3.49,3.49,0,0,0-2.428-.877H54.622Z" transform="translate(44.275 29.471)"/>
      <rect id="Rectangle_354" data-name="Rectangle 354" width="2.073" height="15.719" transform="translate(141.392 64.449)"/>
      <path id="Path_8" data-name="Path 8" d="M98.528,44.544V50.7H96.455V34.979h5.8a5.83,5.83,0,0,1,4.044,1.316,4.47,4.47,0,0,1,1.463,3.488,4.4,4.4,0,0,1-1.432,3.525,6.082,6.082,0,0,1-4.1,1.236Zm0-1.7h3.724a3.72,3.72,0,0,0,2.548-.785,2.859,2.859,0,0,0,.886-2.264,2.957,2.957,0,0,0-.886-2.25,3.49,3.49,0,0,0-2.428-.877H98.528Z" transform="translate(81.269 29.471)"/>
      <path id="Path_9" data-name="Path 9" d="M129.446,43.432h-6.812V49h7.914v1.7h-9.987V34.978h9.878v1.7h-7.805v5.063h6.812Z" transform="translate(101.58 29.47)"/>
      <path id="Path_10" data-name="Path 10" d="M146,49h7.449v1.7h-9.533V34.978H146Z" transform="translate(121.258 29.471)"/>
      <rect id="Rectangle_355" data-name="Rectangle 355" width="2.073" height="15.719" transform="translate(307.694 64.449)"/>
      <path id="Path_11" data-name="Path 11" d="M198.791,50.7h-2.084l-7.914-12.113V50.7H186.71V34.978h2.084l7.936,12.166V34.978h2.062Z" transform="translate(157.313 29.471)"/>
      <path id="Path_12" data-name="Path 12" d="M220.686,43.432h-6.812V49h7.914v1.7H211.8V34.978h9.878v1.7h-7.805v5.063h6.812Z" transform="translate(178.454 29.47)"/>
      <path id="Path_13" data-name="Path 13" d="M50.152,5.888a63.473,63.473,0,0,0-6.574,2.85c-9.021,5.15-17.915,10.523-26.971,15.606A8.973,8.973,0,0,0,11.574,33.2q.221,9.461,0,18.932c-.1,4.072,1.4,6.876,5.05,8.842C22.3,64.043,27.884,67.3,33.4,70.656a8.544,8.544,0,0,0,9.769.031c5.7-3.471,11.5-6.8,17.337-10.035a8.1,8.1,0,0,0,4.516-7.783C64.959,46.039,65,39.207,65,32.377c0-3.086-.846-5.688-3.845-7.21a6.413,6.413,0,0,0-6.39-.125c-6.836,3.886-13.722,7.7-20.4,11.829-4.579,2.834-4.361,7.744.2,10.6,1.551.971,3.223,1.752,4.98,2.694-1.485-5.146-.617-7.109,4.048-9.758,3.484-1.977,6.926-4.03,10.4-6.021.807-.462,1.677-.818,2.834-1.373a24.048,24.048,0,0,1,.276,2.412c.013,4.9-.053,9.8.011,14.7a5.283,5.283,0,0,1-2.895,5.1Q47.735,58.9,41.313,62.685a5.516,5.516,0,0,1-6.08-.035Q28.906,58.919,22.513,55.3A5.417,5.417,0,0,1,19.5,50.047c.083-4.975.076-9.952.007-14.925a5.316,5.316,0,0,1,2.952-5.063C32.023,24.516,41.591,18.979,51.1,13.341c4.055-2.4,7.936-2.452,11.943.017,2.651,1.633,5.388,3.129,8.094,4.669a9.165,9.165,0,0,1,4.933,8.4q.066,16.262,0,32.521a9.073,9.073,0,0,1-4.791,8.26Q57.223,75.348,43.15,83.467a9.19,9.19,0,0,1-9.738-.028Q19.43,75.383,5.468,67.3A9.382,9.382,0,0,1,.519,58.664Q.48,42.626.524,26.587a9.392,9.392,0,0,1,5-8.6q13.886-8,27.754-16.027a9.441,9.441,0,0,1,10.13.035c2.336,1.367,4.687,2.709,6.744,3.9" transform="translate(0.421 0.42)" fill="#4c4c4c"/>
      <path id="Path_14" data-name="Path 14" d="M50.152,5.888a63.473,63.473,0,0,0-6.574,2.85c-9.021,5.15-17.915,10.523-26.971,15.606A8.973,8.973,0,0,0,11.574,33.2q.221,9.461,0,18.932c-.1,4.072,1.4,6.876,5.05,8.842C22.3,64.043,27.884,67.3,33.4,70.656a8.544,8.544,0,0,0,9.769.031c5.7-3.471,11.5-6.8,17.337-10.035a8.1,8.1,0,0,0,4.516-7.783C64.959,46.039,65,39.207,65,32.377c0-3.086-.846-5.688-3.845-7.21a6.413,6.413,0,0,0-6.39-.125c-6.836,3.886-13.722,7.7-20.4,11.829-4.579,2.834-4.361,7.744.2,10.6,1.551.971,3.223,1.752,4.98,2.694-1.485-5.146-.617-7.109,4.048-9.758,3.484-1.977,6.926-4.03,10.4-6.021.807-.462,1.677-.818,2.834-1.373a24.048,24.048,0,0,1,.276,2.412c.013,4.9-.053,9.8.011,14.7a5.283,5.283,0,0,1-2.895,5.1Q47.735,58.9,41.313,62.685a5.516,5.516,0,0,1-6.08-.035Q28.906,58.919,22.513,55.3A5.417,5.417,0,0,1,19.5,50.047c.083-4.975.076-9.952.007-14.925a5.316,5.316,0,0,1,2.952-5.063C32.023,24.516,41.591,18.979,51.1,13.341c4.055-2.4,7.936-2.452,11.943.017,2.651,1.633,5.388,3.129,8.094,4.669a9.165,9.165,0,0,1,4.933,8.4q.066,16.262,0,32.521a9.073,9.073,0,0,1-4.791,8.26Q57.223,75.348,43.15,83.467a9.19,9.19,0,0,1-9.738-.028Q19.43,75.383,5.468,67.3A9.382,9.382,0,0,1,.519,58.664Q.48,42.626.524,26.587a9.392,9.392,0,0,1,5-8.6q13.886-8,27.754-16.027a9.441,9.441,0,0,1,10.13.035C45.744,3.358,48.1,4.7,50.152,5.888Z" transform="translate(0.421 0.42)" fill="none" stroke="#4c4c4c" stroke-miterlimit="10" stroke-width="1"/>
    </g>
  </g>
</svg>
